<?xml version="1.0" standalone="no"?>
<!DOCTYPE svg PUBLIC "-//W3C//DTD SVG 20010904//EN"
 "http://www.w3.org/TR/2001/REC-SVG-20010904/DTD/svg10.dtd">
<svg version="1.0" xmlns="http://www.w3.org/2000/svg"
 width="296.000000pt" height="69.000000pt" viewBox="0 0 296.000000 69.000000"
 preserveAspectRatio="xMidYMid meet">

<g transform="translate(0.000000,69.000000) scale(0.100000,-0.100000)"
fill="#000000" stroke="none">
<path d="M428 663 c6 -2 18 -2 25 0 6 3 1 5 -13 5 -14 0 -19 -2 -12 -5z"/>
<path d="M335 621 c-20 -5 -4 -8 49 -8 52 -1 75 2 65 8 -16 10 -69 10 -114 0z"/>
<path d="M373 593 c15 -2 27 -8 27 -12 0 -13 58 -34 96 -35 19 -1 34 0 34 1 0
12 -90 43 -132 47 -29 2 -41 2 -25 -1z"/>
<path d="M298 583 c6 -2 18 -2 25 0 6 3 1 5 -13 5 -14 0 -19 -2 -12 -5z"/>
<path d="M239 496 c18 -19 27 -23 32 -14 10 15 2 23 -31 33 l-25 7 24 -26z"/>
<path d="M125 332 c5 -69 29 -124 70 -162 l27 -25 -7 25 c-4 14 -15 43 -25 65
-16 36 -47 104 -64 145 -3 8 -4 -13 -1 -48z"/>
<path d="M600 347 c-8 -12 -13 -26 -12 -30 1 -5 -4 -20 -12 -35 -8 -15 -17
-40 -21 -55 -5 -23 -10 -27 -28 -23 -12 3 -16 3 -9 0 17 -8 15 -28 -6 -47 -24
-22 -31 -21 -41 4 -7 21 -27 27 -96 31 -11 1 -23 6 -26 11 -4 5 -9 -3 -13 -18
-5 -20 -12 -26 -30 -23 -23 3 -56 -16 -56 -32 0 -11 57 -30 86 -30 13 0 24 -4
24 -10 0 -17 44 -21 95 -10 94 21 187 103 177 157 l-5 26 -18 -35 c-34 -66
-128 -139 -176 -137 -10 0 2 9 25 20 55 24 104 58 97 68 -2 5 3 17 11 27 9 10
13 13 9 7 -3 -7 -4 -13 -1 -13 13 0 45 81 47 118 3 50 -2 58 -21 29z"/>
<path d="M15 299 c7 -108 86 -213 198 -264 52 -24 68 -27 150 -23 101 3 151
22 217 79 l35 30 -49 -30 c-163 -101 -378 -39 -467 134 -20 39 -31 50 -50 50
-20 0 -25 6 -31 40 -5 32 -6 29 -3 -16z"/>
<path d="M410 308 c0 -23 26 -41 50 -33 27 9 26 25 -3 25 -13 0 -28 5 -35 12
-9 9 -12 8 -12 -4z"/>
<path d="M1077 239 c7 -7 15 -10 18 -7 3 3 -2 9 -12 12 -14 6 -15 5 -6 -5z"/>
<path d="M1462 238 c-28 -14 -27 -55 3 -72 18 -10 18 -10 3 3 -41 31 -2 83 45
61 21 -11 21 -10 3 4 -23 18 -23 18 -54 4z"/>
<path d="M2595 238 c37 -21 43 -39 19 -62 -8 -9 -12 -16 -7 -16 15 0 33 23 33
41 0 18 -36 49 -55 49 -5 0 -1 -6 10 -12z"/>
<path d="M840 200 c0 -22 5 -40 10 -40 6 0 10 7 10 15 0 20 20 19 37 -2 13
-17 14 -16 8 4 -3 12 -1 24 4 27 6 4 8 13 4 21 -8 22 -22 18 -16 -5 4 -15 0
-20 -16 -20 -14 0 -21 6 -21 20 0 11 -4 20 -10 20 -5 0 -10 -18 -10 -40z"/>
<path d="M950 200 c0 -40 0 -40 38 -38 36 1 36 1 5 5 -38 5 -45 29 -10 36 l22
4 -22 2 c-32 2 -29 19 5 24 25 4 25 4 -5 6 -32 1 -33 0 -33 -39z"/>
<path d="M1048 234 c-14 -13 -8 -24 17 -34 14 -5 25 -17 25 -25 0 -9 5 -13 10
-10 17 10 11 25 -15 37 -13 6 -25 17 -27 25 -2 8 -6 11 -10 7z"/>
<path d="M1140 200 c0 -39 1 -40 33 -39 30 2 30 2 5 6 -34 5 -37 30 -5 36 l22
4 -22 2 c-32 2 -29 19 5 24 25 4 25 4 -5 6 -32 1 -33 0 -33 -39z"/>
<path d="M1247 205 c-9 -20 -17 -37 -17 -38 0 -1 18 -2 39 -2 l39 0 -19 38
c-11 20 -21 37 -22 37 -2 0 -11 -16 -20 -35z m28 -23 c-22 -5 -27 1 -19 23 7
17 8 17 21 -1 12 -17 12 -19 -2 -22z"/>
<path d="M1343 200 c-1 -25 1 -37 4 -27 2 9 9 17 15 17 6 0 21 -8 32 -17 20
-17 20 -17 6 0 -11 15 -11 20 0 27 15 9 6 40 -12 40 -10 0 -10 -2 1 -9 17 -11
5 -31 -19 -31 -11 0 -20 9 -23 23 -2 12 -4 2 -4 -23z"/>
<path d="M1563 200 c0 -25 2 -35 4 -22 3 17 11 22 33 22 22 0 30 -5 33 -22 2
-13 4 -3 4 22 1 25 -1 37 -4 28 -3 -12 -14 -18 -33 -18 -19 0 -30 6 -33 18 -3
9 -5 -3 -4 -28z"/>
<path d="M1720 200 c0 -22 5 -40 10 -40 6 0 10 18 10 40 0 22 -4 40 -10 40 -5
0 -10 -18 -10 -40z"/>
<path d="M1771 199 c2 -29 3 -35 6 -16 5 34 10 34 45 0 l28 -27 -1 45 c-2 29
-3 35 -6 17 -5 -35 -10 -35 -45 -1 l-28 27 1 -45z"/>
<path d="M1893 233 c12 -3 17 -15 17 -39 0 -19 5 -34 10 -34 6 0 10 15 10 34
0 24 5 36 18 39 9 3 -3 5 -28 5 -25 0 -37 -2 -27 -5z"/>
<path d="M1980 200 c0 -40 0 -40 38 -39 30 2 32 3 10 6 -31 5 -38 29 -10 36
16 4 16 5 0 6 -28 2 -21 19 10 24 22 3 20 4 -10 6 -38 1 -38 1 -38 -39z"/>
<path d="M2083 200 c-1 -25 1 -37 4 -27 2 9 9 17 15 17 6 0 21 -8 32 -17 20
-17 20 -17 6 0 -11 15 -11 20 0 27 15 9 7 40 -11 40 -8 0 -9 -4 0 -13 13 -16
5 -27 -20 -27 -10 0 -19 9 -22 23 -2 12 -4 2 -4 -23z"/>
<path d="M2180 201 c0 -23 5 -41 10 -41 6 0 10 12 10 26 l0 26 35 -26 35 -27
0 40 c0 23 -4 41 -10 41 -5 0 -10 -12 -10 -27 l0 -26 -22 20 c-43 38 -48 37
-48 -6z"/>
<path d="M2317 205 c-9 -20 -17 -37 -17 -38 0 -1 18 -2 39 -2 l39 0 -19 38
c-11 20 -21 37 -22 37 -2 0 -11 -16 -20 -35z m28 -23 c-22 -5 -27 1 -19 23 7
17 8 17 21 -1 12 -17 12 -19 -2 -22z"/>
<path d="M2403 233 c12 -3 17 -15 17 -39 0 -19 5 -34 10 -34 6 0 10 15 10 34
0 24 5 36 18 39 9 3 -3 5 -28 5 -25 0 -37 -2 -27 -5z"/>
<path d="M2490 200 c0 -22 5 -40 10 -40 6 0 10 18 10 40 0 22 -4 40 -10 40 -5
0 -10 -18 -10 -40z"/>
<path d="M2540 220 c-14 -26 1 -56 32 -63 l23 -6 -22 16 c-25 17 -30 42 -11
61 9 9 9 12 0 12 -6 0 -16 -9 -22 -20z"/>
<path d="M2671 199 c2 -29 3 -35 6 -16 5 34 10 34 45 0 l28 -27 -1 45 c-2 29
-3 35 -6 17 -5 -35 -10 -35 -45 -1 l-28 27 1 -45z"/>
<path d="M2802 204 l-20 -40 39 1 c21 0 39 2 39 5 -1 3 -9 21 -19 39 l-19 35
-20 -40z m38 -16 c0 -5 -7 -8 -15 -8 -15 0 -20 21 -8 33 7 7 23 -11 23 -25z"/>
<path d="M2890 200 c0 -40 0 -40 38 -39 30 2 32 3 10 6 -24 4 -28 9 -28 39 0
19 -4 34 -10 34 -5 0 -10 -18 -10 -40z"/>
<path d="M1510 170 c-9 -6 -10 -10 -3 -10 6 0 15 5 18 10 8 12 4 12 -15 0z"/>
</g>
</svg>
